<?xml version="1.0" standalone="no"?><!DOCTYPE svg PUBLIC "-//W3C//DTD SVG 1.1//EN" "http://www.w3.org/Graphics/SVG/1.1/DTD/svg11.dtd"><svg t="1695987269069" class="icon" viewBox="0 0 1024 1024" version="1.1" xmlns="http://www.w3.org/2000/svg" p-id="4843" xmlns:xlink="http://www.w3.org/1999/xlink" width="200" height="200"><path d="M512.003724 75.636364c-26.065455 0-51.851636 4.933818-77.312 14.801454a286.114909 286.114909 0 0 0-68.747637 37.701818c-20.340364 15.266909-36.770909 31.837091-49.152 49.617455-12.381091 17.826909-18.618182 34.676364-18.618182 50.594909v152.762182c0 29.882182 7.447273 68.049455 22.43491 114.501818 14.941091 46.452364 38.353455 82.385455 70.190545 107.892364a60.602182 60.602182 0 0 1 22.900364 55.389091 71.214545 71.214545 0 0 1-11.962182 28.113454 58.181818 58.181818 0 0 1-23.365818 19.549091l-268.241455 126.976a66.839273 66.839273 0 0 0-15.732364 9.076364c-6.702545 4.794182-10.053818 13.498182-10.053818 26.251636V930.909091l854.341818-0.930909v-59.205818c0-16.523636-3.956364-26.903273-11.915636-30.999273a99.746909 99.746909 0 0 0-12.893091-6.237091l-266.333091-125.998545a61.858909 61.858909 0 0 1-30.999272-79.685819c4.096-9.867636 10.333091-17.966545 18.618181-24.343272 33.047273-25.460364 56.459636-61.579636 70.144-108.357819 13.684364-46.778182 20.48-84.805818 20.48-114.036363V228.305455c0-16.523636-6.330182-33.698909-19.083636-51.525819a224.861091 224.861091 0 0 0-49.152-49.152 283.834182 283.834182 0 0 0-68.701091-37.236363 213.783273 213.783273 0 0 0-76.846545-14.801455z m0-61.114182c33.745455 0 66.978909 6.376727 99.746909 19.083636A337.92 337.92 0 0 1 699.581905 83.316364c25.739636 20.386909 46.778182 43.287273 62.976 68.747636 16.244364 25.460364 24.343273 50.874182 24.343273 76.334545v152.762182c0 18.432-1.861818 39.749818-5.725091 63.953455a415.464727 415.464727 0 0 1-19.083636 73.960727 363.659636 363.659636 0 0 1-35.328 72.517818 234.216727 234.216727 0 0 1-53.434182 59.671273l266.333091 126.976 30.021818 16.709818c20.061091 11.124364 30.068364 25.6 30.068364 43.426909V930.909091c0 16.523636-5.864727 30.72-17.640727 42.496s-25.925818 17.640727-42.496 17.640727H84.390633c-17.175273 0-31.650909-5.864727-43.426909-17.687273A57.902545 57.902545 0 0 1 23.276451 930.909091v-92.625455c0-16.523636 10.193455-30.673455 30.533818-42.449454l30.533818-17.687273 268.241455-126.929454a231.656727 231.656727 0 0 1-54.411637-62.045091 426.914909 426.914909 0 0 1-35.793454-74.007273 394.24 394.24 0 0 1-19.549091-73.448727 394.007273 394.007273 0 0 1-5.725091-60.648728v-152.669091c0-25.506909 7.912727-50.920727 23.831273-76.38109 15.918545-25.460364 36.770909-48.407273 62.557091-68.747637A335.685818 335.685818 0 0 1 411.79136 33.652364 277.224727 277.224727 0 0 1 512.003724 14.568727z" fill="#ffffff" p-id="4844"></path></svg>